<svg width="1920" height="1080" viewBox="0 0 1920 1080" fill="none" xmlns="http://www.w3.org/2000/svg">
<rect width="1920" height="1080" fill="#F2F2F2"/>
<line x1="293.5" y1="298" x2="293.5" y2="490" stroke="#A6A6A6" stroke-width="3"/>
<line x1="295.5" y1="639" x2="295.5" y2="831" stroke="#A6A6A6" stroke-width="3"/>
<line y1="-1.5" x2="192" y2="-1.5" transform="matrix(4.37114e-08 1 1 -4.37114e-08 1612 637)" stroke="#A6A6A6" stroke-width="3"/>
<line x1="293.5" y1="485" x2="293.5" y2="634" stroke="#A6A6A6" stroke-width="3"/>
<line x1="704.5" y1="488" x2="704.5" y2="637" stroke="#A6A6A6" stroke-width="3"/>
<line x1="704.5" y1="677" x2="704.5" y2="826" stroke="#A6A6A6" stroke-width="3"/>
<line x1="1206.5" y1="677" x2="1206.5" y2="826" stroke="#A6A6A6" stroke-width="3"/>
<line x1="1200.5" y1="488" x2="1200.5" y2="639" stroke="#A6A6A6" stroke-width="3"/>
<line x1="1610.5" y1="490" x2="1610.5" y2="639" stroke="#A6A6A6" stroke-width="3"/>
<line x1="664.5" y1="298" x2="664.5" y2="488" stroke="#A6A6A6" stroke-width="3"/>
<line x1="1287.5" y1="298" x2="1287.5" y2="487" stroke="#A6A6A6" stroke-width="3"/>
<line x1="1001.5" y1="298" x2="1001.5" y2="490" stroke="#A6A6A6" stroke-width="3"/>
<line y1="-1.5" x2="192" y2="-1.5" transform="matrix(4.37114e-08 1 1 -4.37114e-08 1612 298)" stroke="#A6A6A6" stroke-width="3"/>
<line x1="807" y1="486.5" x2="292" y2="486.5" stroke="#A6A6A6" stroke-width="3"/>
<line x1="883" y1="827.5" x2="294" y2="827.5" stroke="#A6A6A6" stroke-width="3"/>
<line y1="-1.5" x2="589" y2="-1.5" transform="matrix(1 0 0 -1 1023 826)" stroke="#A6A6A6" stroke-width="3"/>
<path d="M978 913L1060 913" stroke="#A6A6A6" stroke-width="2"/>
<path d="M978 859L978 1015" stroke="#A6A6A6" stroke-width="2"/>
<path d="M978 963L1060 963" stroke="#A6A6A6" stroke-width="2"/>
<path d="M977 1015L1060 1015" stroke="#A6A6A6" stroke-width="2"/>
<line y1="-1.5" x2="515" y2="-1.5" transform="matrix(1 0 0 -1 1097 485)" stroke="#A6A6A6" stroke-width="3"/>
<rect x="741" y="434" width="438" height="102" rx="51" fill="#225391"/>
<path d="M810.44 485.52C810.44 476.72 804.72 470.56 796.52 470.56C788.36 470.56 782.64 476.76 782.64 485.52C782.64 494.32 788.32 500.48 796.48 500.48C804.68 500.48 810.44 494.32 810.44 485.52ZM806.32 485.52C806.32 492.2 802.4 496.72 796.52 496.72C790.64 496.72 786.76 492.24 786.76 485.52C786.76 478.8 790.64 474.36 796.52 474.36C802.4 474.36 806.32 478.8 806.32 485.52ZM812.734 480.44V483.6H815.614V500H819.374V483.6H828.054V500H831.774V483.6H840.494V500H844.214V480.44H831.774V477.32C831.774 475.2 832.414 473.96 834.694 473.96H836.374V470.72C835.614 470.6 834.774 470.56 834.054 470.56C830.654 470.56 828.054 472.52 828.054 477.32V480.44H819.374V477.32C819.374 475.2 819.974 473.96 822.414 473.96H824.094V470.72C823.374 470.6 822.534 470.56 821.814 470.56C818.214 470.56 815.614 472.52 815.614 477.32V480.44H812.734ZM842.334 475.36C843.694 475.36 844.734 474.32 844.734 472.96C844.734 471.64 843.694 470.56 842.334 470.56C840.974 470.56 839.974 471.64 839.974 472.96C839.974 474.32 840.974 475.36 842.334 475.36ZM848.299 490.24C848.299 496.4 852.099 500.48 857.859 500.48C862.579 500.48 866.219 497.64 866.979 493.4H863.219C862.539 495.72 860.539 497.12 857.859 497.12C854.299 497.12 852.019 494.4 852.019 490.2C852.019 485.96 854.459 483.24 858.019 483.24C860.539 483.24 862.539 484.56 863.179 487.04H866.939C866.259 482.68 862.819 479.88 857.899 479.88C852.179 479.88 848.299 484.12 848.299 490.24ZM879.387 500.48C884.227 500.48 887.507 498.12 888.467 493.92H884.947C884.307 496.16 882.387 497.36 879.467 497.36C875.747 497.36 873.587 495.08 873.307 490.96L888.427 490.92V489.52C888.427 483.72 884.787 479.88 879.227 479.88C873.547 479.88 869.667 484.12 869.667 490.24C869.667 496.32 873.627 500.48 879.387 500.48ZM879.227 483.04C882.547 483.04 884.667 485.2 884.667 488.44H873.387C873.867 485 875.947 483.04 879.227 483.04ZM908.044 500V487.64C908.044 483.6 907.964 480.64 907.764 479.24L916.164 500H919.844L928.284 479.16C928.084 481.2 928.044 483.16 928.044 488.56V500H931.884V471.08H927.964L918.004 495.4L908.044 471.08H904.204V500H908.044ZM943.698 500.48C946.858 500.48 949.538 499.08 950.538 496.84L950.938 500H954.138V487.72C954.138 482.44 950.858 479.88 946.018 479.88C940.978 479.88 937.618 482.56 937.618 486.64H940.898C940.898 484.28 942.698 482.88 945.858 482.88C948.498 482.88 950.458 484.04 950.458 487.32V487.88L944.298 488.36C939.698 488.72 937.018 490.96 937.018 494.56C937.018 498.12 939.498 500.48 943.698 500.48ZM944.778 497.56C942.338 497.56 940.818 496.52 940.818 494.44C940.818 492.52 942.178 491.24 945.498 490.92L950.498 490.52V491.56C950.498 495.24 948.338 497.56 944.778 497.56ZM963.105 500V489.64C963.105 485.84 965.145 483.32 968.665 483.32C971.545 483.32 973.385 484.92 973.385 488.88V500H977.145V488.04C977.145 483.04 974.785 479.88 969.625 479.88C966.865 479.88 964.385 481.2 963.145 483.44L962.745 480.44H959.345V500H963.105ZM988.073 500.48C991.233 500.48 993.913 499.08 994.913 496.84L995.313 500H998.513V487.72C998.513 482.44 995.233 479.88 990.393 479.88C985.353 479.88 981.993 482.56 981.993 486.64H985.273C985.273 484.28 987.073 482.88 990.233 482.88C992.873 482.88 994.833 484.04 994.833 487.32V487.88L988.673 488.36C984.073 488.72 981.393 490.96 981.393 494.56C981.393 498.12 983.873 500.48 988.073 500.48ZM989.153 497.56C986.713 497.56 985.193 496.52 985.193 494.44C985.193 492.52 986.553 491.24 989.873 490.92L994.873 490.52V491.56C994.873 495.24 992.713 497.56 989.153 497.56ZM1002.48 489.72C1002.48 495.2 1006 499.48 1011.56 499.48C1014.64 499.48 1017.2 498.12 1018.48 495.84V499.76C1018.48 503.48 1016.08 505.88 1012.4 505.88C1009.12 505.88 1006.96 504.2 1006.48 501.32H1002.72C1003.44 506.28 1007.08 509.28 1012.4 509.28C1018.4 509.28 1022.2 505.36 1022.2 499.2V480.44H1018.84L1018.56 483.76C1017.32 481.32 1014.88 479.88 1011.72 479.88C1006.04 479.88 1002.48 484.2 1002.48 489.72ZM1006.24 489.64C1006.24 486.04 1008.48 483.16 1012.24 483.16C1016.08 483.16 1018.32 485.88 1018.32 489.64C1018.32 493.48 1016 496.2 1012.2 496.2C1008.52 496.2 1006.24 493.32 1006.24 489.64ZM1036.07 500.48C1040.91 500.48 1044.19 498.12 1045.15 493.92H1041.63C1040.99 496.16 1039.07 497.36 1036.15 497.36C1032.43 497.36 1030.27 495.08 1029.99 490.96L1045.11 490.92V489.52C1045.11 483.72 1041.47 479.88 1035.91 479.88C1030.23 479.88 1026.35 484.12 1026.35 490.24C1026.35 496.32 1030.31 500.48 1036.07 500.48ZM1035.91 483.04C1039.23 483.04 1041.35 485.2 1041.35 488.44H1030.07C1030.55 485 1032.63 483.04 1035.91 483.04ZM1053.07 500V488.4C1053.07 485.28 1054.95 483.32 1057.79 483.32C1060.43 483.32 1062.11 485 1062.11 488.08V500H1065.83V488.4C1065.83 485.28 1067.71 483.28 1070.55 483.28C1073.19 483.28 1074.91 485.04 1074.91 488.12V500H1078.59V487.2C1078.59 482.68 1075.87 479.88 1071.39 479.88C1068.35 479.88 1065.99 481.4 1065.07 483.84C1064.07 481.4 1061.91 479.88 1058.87 479.88C1056.11 479.88 1054.03 481.16 1053.03 483L1052.67 480.44H1049.31V500H1053.07ZM1092.24 500.48C1097.08 500.48 1100.36 498.12 1101.32 493.92H1097.8C1097.16 496.16 1095.24 497.36 1092.32 497.36C1088.6 497.36 1086.44 495.08 1086.16 490.96L1101.28 490.92V489.52C1101.28 483.72 1097.64 479.88 1092.08 479.88C1086.4 479.88 1082.52 484.12 1082.52 490.24C1082.52 496.32 1086.48 500.48 1092.24 500.48ZM1092.08 483.04C1095.4 483.04 1097.52 485.2 1097.52 488.44H1086.24C1086.72 485 1088.8 483.04 1092.08 483.04ZM1109.24 500V489.64C1109.24 485.84 1111.28 483.32 1114.8 483.32C1117.68 483.32 1119.52 484.92 1119.52 488.88V500H1123.28V488.04C1123.28 483.04 1120.92 479.88 1115.76 479.88C1113 479.88 1110.52 481.2 1109.28 483.44L1108.88 480.44H1105.48V500H1109.24ZM1134.01 500V483.6H1137.85V480.44H1134.01V474.32H1130.25V480.44H1126.41V483.6H1130.25V500H1134.01Z" fill="#F2F2F2"/>
<rect x="1484" y="228" width="257" height="83" rx="41.5" fill="#112B4B"/>
<path d="M1524.16 272.592V282H1527.3V272.592L1535.07 258.864H1531.65L1526.53 268.112C1526.11 268.88 1526.05 269.072 1525.76 269.648C1525.5 269.104 1525.31 268.656 1524.99 268.112L1519.84 258.864H1516.32L1524.16 272.592ZM1541.18 282.384C1545.05 282.384 1547.67 280.496 1548.44 277.136H1545.63C1545.11 278.928 1543.58 279.888 1541.24 279.888C1538.27 279.888 1536.54 278.064 1536.31 274.768L1548.41 274.736V273.616C1548.41 268.976 1545.5 265.904 1541.05 265.904C1536.51 265.904 1533.4 269.296 1533.4 274.192C1533.4 279.056 1536.57 282.384 1541.18 282.384ZM1541.05 268.432C1543.71 268.432 1545.4 270.16 1545.4 272.752H1536.38C1536.76 270 1538.43 268.432 1541.05 268.432ZM1556.19 282.384C1558.72 282.384 1560.86 281.264 1561.66 279.472L1561.98 282H1564.54V272.176C1564.54 267.952 1561.92 265.904 1558.05 265.904C1554.01 265.904 1551.33 268.048 1551.33 271.312H1553.95C1553.95 269.424 1555.39 268.304 1557.92 268.304C1560.03 268.304 1561.6 269.232 1561.6 271.856V272.304L1556.67 272.688C1552.99 272.976 1550.85 274.768 1550.85 277.648C1550.85 280.496 1552.83 282.384 1556.19 282.384ZM1557.05 280.048C1555.1 280.048 1553.89 279.216 1553.89 277.552C1553.89 276.016 1554.97 274.992 1557.63 274.736L1561.63 274.416V275.248C1561.63 278.192 1559.9 280.048 1557.05 280.048ZM1577.67 266.224C1577.06 266.096 1576.61 266.032 1576.07 266.032C1573.92 266.032 1572.36 267.12 1571.72 268.752L1571.52 266.384H1568.71V282H1571.72V273.712C1571.72 270.704 1573.48 268.976 1576.32 268.976H1577.67V266.224ZM1583.56 282V258.448H1580.55V282H1583.56ZM1586.48 289.008C1587.28 289.2 1588.12 289.328 1589.11 289.328C1591.51 289.328 1593.08 288.208 1594.13 285.52L1601.52 266.352H1598.42L1593.78 278.96L1589.24 266.352H1586.07L1592.37 282.832L1591.83 284.336C1591.09 286.32 1589.94 286.544 1588.5 286.544H1586.48V289.008ZM1616.32 282V272.848H1622.24L1626.56 282H1630.05L1625.35 272.24C1628.23 271.312 1629.83 269.008 1629.83 265.808C1629.83 261.488 1626.88 258.864 1621.92 258.864H1613.19V282H1616.32ZM1616.32 261.68H1621.92C1624.8 261.68 1626.53 263.152 1626.53 265.84C1626.53 268.496 1624.87 270.064 1621.96 270.064H1616.32V261.68ZM1639.24 282.384C1643.11 282.384 1645.74 280.496 1646.5 277.136H1643.69C1643.18 278.928 1641.64 279.888 1639.3 279.888C1636.33 279.888 1634.6 278.064 1634.38 274.768L1646.47 274.736V273.616C1646.47 268.976 1643.56 265.904 1639.11 265.904C1634.57 265.904 1631.46 269.296 1631.46 274.192C1631.46 279.056 1634.63 282.384 1639.24 282.384ZM1639.11 268.432C1641.77 268.432 1643.46 270.16 1643.46 272.752H1634.44C1634.82 270 1636.49 268.432 1639.11 268.432ZM1649.83 289.008H1652.84V279.44C1653.86 281.36 1655.94 282.416 1658.44 282.416C1663.08 282.416 1665.7 278.832 1665.7 274.064C1665.7 269.264 1662.92 265.904 1658.44 265.904C1655.94 265.904 1653.83 267.024 1652.78 269.168L1652.55 266.352H1649.83V289.008ZM1652.87 274.192C1652.87 270.928 1654.73 268.656 1657.8 268.656C1660.87 268.656 1662.7 270.96 1662.7 274.192C1662.7 277.392 1660.87 279.696 1657.8 279.696C1654.73 279.696 1652.87 277.392 1652.87 274.192ZM1668 274.16C1668 278.992 1671.45 282.384 1676.16 282.384C1680.83 282.384 1684.28 278.992 1684.28 274.16C1684.28 269.328 1680.83 265.936 1676.16 265.936C1671.45 265.936 1668 269.328 1668 274.16ZM1671.04 274.16C1671.04 270.896 1673.12 268.624 1676.16 268.624C1679.16 268.624 1681.28 270.896 1681.28 274.16C1681.28 277.424 1679.16 279.696 1676.16 279.696C1673.12 279.696 1671.04 277.424 1671.04 274.16ZM1696.57 266.224C1695.97 266.096 1695.52 266.032 1694.97 266.032C1692.83 266.032 1691.26 267.12 1690.62 268.752L1690.43 266.384H1687.61V282H1690.62V273.712C1690.62 270.704 1692.38 268.976 1695.23 268.976H1696.57V266.224ZM1704.44 282V268.88H1707.51V266.352H1704.44V261.456H1701.43V266.352H1698.36V268.88H1701.43V282H1704.44Z" fill="#F2F2F2"/>
<rect x="179" y="228" width="236" height="83" rx="41.5" fill="#112B4B"/>
<path d="M234.552 270.416C234.552 263.376 229.976 258.448 223.416 258.448C216.888 258.448 212.312 263.408 212.312 270.416C212.312 277.456 216.856 282.384 223.384 282.384C229.944 282.384 234.552 277.456 234.552 270.416ZM231.256 270.416C231.256 275.76 228.12 279.376 223.416 279.376C218.712 279.376 215.608 275.792 215.608 270.416C215.608 265.04 218.712 261.488 223.416 261.488C228.12 261.488 231.256 265.04 231.256 270.416ZM236.387 266.352V268.88H238.691V282H241.699V268.88H248.643V282H251.619V268.88H258.595V282H261.571V266.352H251.619V263.856C251.619 262.16 252.131 261.168 253.955 261.168H255.299V258.576C254.691 258.48 254.019 258.448 253.443 258.448C250.723 258.448 248.643 260.016 248.643 263.856V266.352H241.699V263.856C241.699 262.16 242.179 261.168 244.131 261.168H245.475V258.576C244.899 258.48 244.227 258.448 243.651 258.448C240.771 258.448 238.691 260.016 238.691 263.856V266.352H236.387ZM260.067 262.288C261.155 262.288 261.987 261.456 261.987 260.368C261.987 259.312 261.155 258.448 260.067 258.448C258.979 258.448 258.179 259.312 258.179 260.368C258.179 261.456 258.979 262.288 260.067 262.288ZM264.84 274.192C264.84 279.12 267.88 282.384 272.488 282.384C276.264 282.384 279.176 280.112 279.784 276.72H276.776C276.232 278.576 274.632 279.696 272.488 279.696C269.64 279.696 267.816 277.52 267.816 274.16C267.816 270.768 269.768 268.592 272.616 268.592C274.632 268.592 276.232 269.648 276.744 271.632H279.752C279.208 268.144 276.456 265.904 272.52 265.904C267.944 265.904 264.84 269.296 264.84 274.192ZM289.709 282.384C293.581 282.384 296.205 280.496 296.973 277.136H294.157C293.645 278.928 292.109 279.888 289.773 279.888C286.797 279.888 285.069 278.064 284.845 274.768L296.941 274.736V273.616C296.941 268.976 294.029 265.904 289.581 265.904C285.037 265.904 281.933 269.296 281.933 274.192C281.933 279.056 285.101 282.384 289.709 282.384ZM289.581 268.432C292.237 268.432 293.933 270.16 293.933 272.752H284.909C285.293 270 286.957 268.432 289.581 268.432ZM310.523 282L312.571 276.24H322.299L324.379 282H327.675L319.195 258.864H315.707L307.259 282H310.523ZM317.051 263.856C317.211 263.376 317.371 262.832 317.435 262.512C317.499 262.864 317.659 263.408 317.819 263.856L321.371 273.52H313.531L317.051 263.856ZM340.617 266.352V274.608C340.617 277.968 339.113 279.728 336.361 279.728C334.057 279.728 332.617 278.448 332.617 275.088V266.352H329.609V276.08C329.609 279.92 331.657 282.384 335.305 282.384C337.609 282.384 339.689 281.264 340.585 279.632L340.905 282H343.593V266.352H340.617ZM353.917 282.384C356.413 282.384 358.525 281.296 359.549 279.152L359.805 282H362.493V258.448H359.517V268.88C358.461 266.96 356.445 265.904 354.045 265.904C349.405 265.904 346.621 269.424 346.621 274.224C346.621 278.992 349.373 282.384 353.917 282.384ZM354.525 279.664C351.453 279.664 349.661 277.36 349.661 274.128C349.661 270.928 351.453 268.624 354.525 268.624C357.597 268.624 359.485 270.928 359.485 274.128C359.485 277.392 357.597 279.664 354.525 279.664ZM368.304 262.64C369.392 262.64 370.288 261.744 370.288 260.656C370.288 259.536 369.392 258.672 368.304 258.672C367.216 258.672 366.32 259.536 366.32 260.656C366.32 261.744 367.216 262.64 368.304 262.64ZM366.832 282H369.84V266.352H366.832V282ZM378.623 282V268.88H381.695V266.352H378.623V261.456H375.615V266.352H372.543V268.88H375.615V282H378.623Z" fill="#F2F2F2"/>
<rect x="519" y="228" width="289" height="83" rx="41.5" fill="#112B4B"/>
<path d="M556.824 282V272.848H562.744L567.064 282H570.552L565.848 272.24C568.728 271.312 570.328 269.008 570.328 265.808C570.328 261.488 567.384 258.864 562.424 258.864H553.688V282H556.824ZM556.824 261.68H562.424C565.304 261.68 567.032 263.152 567.032 265.84C567.032 268.496 565.368 270.064 562.456 270.064H556.824V261.68ZM579.741 282.384C583.613 282.384 586.237 280.496 587.005 277.136H584.189C583.677 278.928 582.141 279.888 579.805 279.888C576.829 279.888 575.101 278.064 574.877 274.768L586.972 274.736V273.616C586.972 268.976 584.061 265.904 579.613 265.904C575.069 265.904 571.965 269.296 571.965 274.192C571.965 279.056 575.133 282.384 579.741 282.384ZM579.613 268.432C582.269 268.432 583.965 270.16 583.965 272.752H574.941C575.325 270 576.989 268.432 579.613 268.432ZM593.404 282V258.448H590.396V282H593.404ZM602.408 282.384C604.936 282.384 607.08 281.264 607.88 279.472L608.2 282H610.76V272.176C610.76 267.952 608.136 265.904 604.264 265.904C600.232 265.904 597.544 268.048 597.544 271.312H600.168C600.168 269.424 601.608 268.304 604.136 268.304C606.248 268.304 607.816 269.232 607.816 271.856V272.304L602.888 272.688C599.208 272.976 597.064 274.768 597.064 277.648C597.064 280.496 599.048 282.384 602.408 282.384ZM603.272 280.048C601.32 280.048 600.104 279.216 600.104 277.552C600.104 276.016 601.192 274.992 603.848 274.736L607.848 274.416V275.248C607.848 278.192 606.12 280.048 603.272 280.048ZM619.092 282V268.88H622.164V266.352H619.092V261.456H616.084V266.352H613.012V268.88H616.084V282H619.092ZM631.459 282.384C635.331 282.384 637.955 280.496 638.723 277.136H635.907C635.395 278.928 633.859 279.888 631.523 279.888C628.547 279.888 626.819 278.064 626.595 274.768L638.691 274.736V273.616C638.691 268.976 635.779 265.904 631.331 265.904C626.787 265.904 623.683 269.296 623.683 274.192C623.683 279.056 626.851 282.384 631.459 282.384ZM631.331 268.432C633.987 268.432 635.683 270.16 635.683 272.752H626.659C627.043 270 628.707 268.432 631.331 268.432ZM648.323 282.384C650.819 282.384 652.931 281.296 653.955 279.152L654.211 282H656.899V258.448H653.923V268.88C652.867 266.96 650.851 265.904 648.451 265.904C643.811 265.904 641.027 269.424 641.027 274.224C641.027 278.992 643.779 282.384 648.323 282.384ZM648.931 279.664C645.859 279.664 644.067 277.36 644.067 274.128C644.067 270.928 645.859 268.624 648.931 268.624C652.003 268.624 653.891 270.928 653.891 274.128C653.891 277.392 652.003 279.664 648.931 279.664ZM684.613 282V279.088H673.637V271.76H683.525V268.976H673.637V261.744H684.613V258.864H670.501V282H684.613ZM690.245 282L694.085 276.272L697.989 282H701.477L696.133 274.256L701.573 266.352H698.149L694.277 272.176L690.309 266.352H686.821L692.261 274.256L686.789 282H690.245ZM704.082 289.008H707.09V279.44C708.114 281.36 710.194 282.416 712.69 282.416C717.33 282.416 719.954 278.832 719.954 274.064C719.954 269.264 717.17 265.904 712.69 265.904C710.194 265.904 708.082 267.024 707.026 269.168L706.802 266.352H704.082V289.008ZM707.122 274.192C707.122 270.928 708.978 268.656 712.05 268.656C715.122 268.656 716.946 270.96 716.946 274.192C716.946 277.392 715.122 279.696 712.05 279.696C708.978 279.696 707.122 277.392 707.122 274.192ZM730.022 282.384C733.894 282.384 736.518 280.496 737.286 277.136H734.47C733.958 278.928 732.422 279.888 730.086 279.888C727.11 279.888 725.382 278.064 725.158 274.768L737.254 274.736V273.616C737.254 268.976 734.342 265.904 729.894 265.904C725.35 265.904 722.246 269.296 722.246 274.192C722.246 279.056 725.414 282.384 730.022 282.384ZM729.894 268.432C732.55 268.432 734.246 270.16 734.246 272.752H725.222C725.606 270 727.27 268.432 729.894 268.432ZM749.574 266.224C748.966 266.096 748.518 266.032 747.974 266.032C745.83 266.032 744.262 267.12 743.622 268.752L743.43 266.384H740.614V282H743.622V273.712C743.622 270.704 745.382 268.976 748.23 268.976H749.574V266.224ZM757.436 282V268.88H760.508V266.352H757.436V261.456H754.428V266.352H751.356V268.88H754.428V282H757.436ZM761.927 277.456C761.927 280.432 764.263 282.384 767.943 282.384C771.655 282.384 774.215 280.496 774.215 277.52C774.215 275.184 772.903 273.968 770.247 273.328L767.495 272.656C765.959 272.272 765.191 271.568 765.191 270.512C765.191 269.072 766.247 268.24 768.135 268.24C769.959 268.24 771.015 269.232 771.079 270.8H773.959C773.895 267.824 771.655 265.904 768.231 265.904C764.775 265.904 762.343 267.728 762.343 270.608C762.343 272.912 763.655 274.288 766.439 274.96L769.191 275.6C770.823 276.016 771.335 276.656 771.335 277.712C771.335 279.152 770.119 280.016 768.007 280.016C766.023 280.016 764.807 279.056 764.807 277.456H761.927Z" fill="#F2F2F2"/>
<rect x="912" y="228" width="177" height="83" rx="41.5" fill="#112B4B"/>
<path d="M956.288 282.352C961.504 282.352 965.632 279.28 966.624 274.672H963.296C962.432 277.52 959.744 279.344 956.352 279.344C951.68 279.344 948.608 275.824 948.608 270.416C948.608 265.008 951.68 261.488 956.352 261.488C959.712 261.488 962.304 263.312 963.168 266.32H966.528C965.664 261.584 961.664 258.48 956.448 258.48C949.824 258.48 945.312 263.312 945.312 270.448C945.312 277.616 949.696 282.352 956.288 282.352ZM974.221 282.384C976.749 282.384 978.893 281.264 979.693 279.472L980.013 282H982.573V272.176C982.573 267.952 979.949 265.904 976.077 265.904C972.045 265.904 969.357 268.048 969.357 271.312H971.981C971.981 269.424 973.421 268.304 975.949 268.304C978.061 268.304 979.629 269.232 979.629 271.856V272.304L974.701 272.688C971.021 272.976 968.877 274.768 968.877 277.648C968.877 280.496 970.861 282.384 974.221 282.384ZM975.085 280.048C973.133 280.048 971.917 279.216 971.917 277.552C971.917 276.016 973.005 274.992 975.661 274.736L979.661 274.416V275.248C979.661 278.192 977.933 280.048 975.085 280.048ZM989.459 282L989.683 279.152C990.707 281.296 992.786 282.384 995.251 282.384C999.795 282.384 1002.61 278.992 1002.61 274.256C1002.61 269.424 999.923 265.904 995.443 265.904C992.883 265.904 990.771 266.992 989.747 269.04V258.448H986.739V282H989.459ZM989.779 274.128C989.779 270.928 991.635 268.624 994.707 268.624C997.779 268.624 999.603 270.928 999.603 274.128C999.603 277.36 997.779 279.664 994.707 279.664C991.635 279.664 989.779 277.392 989.779 274.128ZM1007.4 262.64C1008.49 262.64 1009.38 261.744 1009.38 260.656C1009.38 259.536 1008.49 258.672 1007.4 258.672C1006.31 258.672 1005.41 259.536 1005.41 260.656C1005.41 261.744 1006.31 262.64 1007.4 262.64ZM1005.93 282H1008.93V266.352H1005.93V282ZM1016.31 282V273.712C1016.31 270.672 1017.94 268.656 1020.76 268.656C1023.06 268.656 1024.53 269.936 1024.53 273.104V282H1027.54V272.432C1027.54 268.432 1025.65 265.904 1021.53 265.904C1019.32 265.904 1017.33 266.96 1016.34 268.752L1016.02 266.352H1013.3V282H1016.31ZM1038.46 282.384C1042.33 282.384 1044.96 280.496 1045.72 277.136H1042.91C1042.4 278.928 1040.86 279.888 1038.52 279.888C1035.55 279.888 1033.82 278.064 1033.6 274.768L1045.69 274.736V273.616C1045.69 268.976 1042.78 265.904 1038.33 265.904C1033.79 265.904 1030.68 269.296 1030.68 274.192C1030.68 279.056 1033.85 282.384 1038.46 282.384ZM1038.33 268.432C1040.99 268.432 1042.68 270.16 1042.68 272.752H1033.66C1034.04 270 1035.71 268.432 1038.33 268.432ZM1053.31 282V268.88H1056.38V266.352H1053.31V261.456H1050.3V266.352H1047.23V268.88H1050.3V282H1053.31Z" fill="#F2F2F2"/>
<rect x="1193" y="228" width="187" height="83" rx="41.5" fill="#112B4B"/>
<path d="M1228.65 282L1230.7 276.24H1240.42L1242.5 282H1245.8L1237.32 258.864H1233.83L1225.38 282H1228.65ZM1235.18 263.856C1235.34 263.376 1235.5 262.832 1235.56 262.512C1235.62 262.864 1235.78 263.408 1235.94 263.856L1239.5 273.52H1231.66L1235.18 263.856ZM1254.04 282.384C1256.54 282.384 1258.65 281.296 1259.67 279.152L1259.93 282H1262.62V258.448H1259.64V268.88C1258.59 266.96 1256.57 265.904 1254.17 265.904C1249.53 265.904 1246.75 269.424 1246.75 274.224C1246.75 278.992 1249.5 282.384 1254.04 282.384ZM1254.65 279.664C1251.58 279.664 1249.79 277.36 1249.79 274.128C1249.79 270.928 1251.58 268.624 1254.65 268.624C1257.72 268.624 1259.61 270.928 1259.61 274.128C1259.61 277.392 1257.72 279.664 1254.65 279.664ZM1271.34 282H1274.32L1280.85 266.352H1277.71L1274.22 275.088C1273.68 276.464 1273.17 277.808 1272.91 278.832C1272.65 277.872 1272.21 276.56 1271.66 275.088L1268.24 266.352H1265.04L1271.34 282ZM1284.71 262.64C1285.8 262.64 1286.69 261.744 1286.69 260.656C1286.69 259.536 1285.8 258.672 1284.71 258.672C1283.62 258.672 1282.73 259.536 1282.73 260.656C1282.73 261.744 1283.62 262.64 1284.71 262.64ZM1283.24 282H1286.25V266.352H1283.24V282ZM1289.33 277.456C1289.33 280.432 1291.67 282.384 1295.35 282.384C1299.06 282.384 1301.62 280.496 1301.62 277.52C1301.62 275.184 1300.31 273.968 1297.65 273.328L1294.9 272.656C1293.37 272.272 1292.6 271.568 1292.6 270.512C1292.6 269.072 1293.65 268.24 1295.54 268.24C1297.37 268.24 1298.42 269.232 1298.49 270.8H1301.37C1301.3 267.824 1299.06 265.904 1295.64 265.904C1292.18 265.904 1289.75 267.728 1289.75 270.608C1289.75 272.912 1291.06 274.288 1293.85 274.96L1296.6 275.6C1298.23 276.016 1298.74 276.656 1298.74 277.712C1298.74 279.152 1297.53 280.016 1295.41 280.016C1293.43 280.016 1292.21 279.056 1292.21 277.456H1289.33ZM1303.93 274.16C1303.93 278.992 1307.39 282.384 1312.09 282.384C1316.77 282.384 1320.22 278.992 1320.22 274.16C1320.22 269.328 1316.77 265.936 1312.09 265.936C1307.39 265.936 1303.93 269.328 1303.93 274.16ZM1306.97 274.16C1306.97 270.896 1309.05 268.624 1312.09 268.624C1315.1 268.624 1317.21 270.896 1317.21 274.16C1317.21 277.424 1315.1 279.696 1312.09 279.696C1309.05 279.696 1306.97 277.424 1306.97 274.16ZM1332.51 266.224C1331.9 266.096 1331.46 266.032 1330.91 266.032C1328.77 266.032 1327.2 267.12 1326.56 268.752L1326.37 266.384H1323.55V282H1326.56V273.712C1326.56 270.704 1328.32 268.976 1331.17 268.976H1332.51V266.224ZM1334.05 277.456C1334.05 280.432 1336.39 282.384 1340.07 282.384C1343.78 282.384 1346.34 280.496 1346.34 277.52C1346.34 275.184 1345.03 273.968 1342.37 273.328L1339.62 272.656C1338.08 272.272 1337.32 271.568 1337.32 270.512C1337.32 269.072 1338.37 268.24 1340.26 268.24C1342.08 268.24 1343.14 269.232 1343.2 270.8H1346.08C1346.02 267.824 1343.78 265.904 1340.36 265.904C1336.9 265.904 1334.47 267.728 1334.47 270.608C1334.47 272.912 1335.78 274.288 1338.56 274.96L1341.32 275.6C1342.95 276.016 1343.46 276.656 1343.46 277.712C1343.46 279.152 1342.24 280.016 1340.13 280.016C1338.15 280.016 1336.93 279.056 1336.93 277.456H1334.05Z" fill="#F2F2F2"/>
<rect x="857" y="785" width="250" height="83" rx="41.5" fill="#112B4B"/>
<path d="M895.012 839V828.728H906.468V839H909.604V815.864H906.468V825.816H895.012V815.864H891.876V839H895.012ZM915.929 819.64C917.017 819.64 917.913 818.744 917.913 817.656C917.913 816.536 917.017 815.672 915.929 815.672C914.841 815.672 913.945 816.536 913.945 817.656C913.945 818.744 914.841 819.64 915.929 819.64ZM914.457 839H917.465V823.352H914.457V839ZM930.792 823.224C930.184 823.096 929.736 823.032 929.192 823.032C927.048 823.032 925.48 824.12 924.84 825.752L924.648 823.384H921.832V839H924.84V830.712C924.84 827.704 926.6 825.976 929.448 825.976H930.792V823.224ZM939.803 839.384C943.675 839.384 946.299 837.496 947.067 834.136H944.251C943.739 835.928 942.203 836.888 939.867 836.888C936.891 836.888 935.163 835.064 934.939 831.768L947.035 831.736V830.616C947.035 825.976 944.123 822.904 939.675 822.904C935.131 822.904 932.027 826.296 932.027 831.192C932.027 836.056 935.195 839.384 939.803 839.384ZM939.675 825.432C942.331 825.432 944.027 827.16 944.027 829.752H935.003C935.387 827 937.051 825.432 939.675 825.432ZM956.667 839.384C959.163 839.384 961.275 838.296 962.299 836.152L962.555 839H965.243V815.448H962.267V825.88C961.211 823.96 959.195 822.904 956.795 822.904C952.155 822.904 949.371 826.424 949.371 831.224C949.371 835.992 952.123 839.384 956.667 839.384ZM957.275 836.664C954.203 836.664 952.411 834.36 952.411 831.128C952.411 827.928 954.203 825.624 957.275 825.624C960.347 825.624 962.235 827.928 962.235 831.128C962.235 834.392 960.347 836.664 957.275 836.664ZM981.98 815.864H978.844V839H981.98V815.864ZM989.872 839V830.712C989.872 827.672 991.504 825.656 994.32 825.656C996.624 825.656 998.096 826.936 998.096 830.104V839H1001.1V829.432C1001.1 825.432 999.216 822.904 995.088 822.904C992.88 822.904 990.896 823.96 989.904 825.752L989.584 823.352H986.864V839H989.872ZM1009.69 839V825.88H1012.76V823.352H1009.69V818.456H1006.68V823.352H1003.61V825.88H1006.68V839H1009.69ZM1022.05 839.384C1025.93 839.384 1028.55 837.496 1029.32 834.136H1026.5C1025.99 835.928 1024.45 836.888 1022.12 836.888C1019.14 836.888 1017.41 835.064 1017.19 831.768L1029.28 831.736V830.616C1029.28 825.976 1026.37 822.904 1021.93 822.904C1017.38 822.904 1014.28 826.296 1014.28 831.192C1014.28 836.056 1017.45 839.384 1022.05 839.384ZM1021.93 825.432C1024.58 825.432 1026.28 827.16 1026.28 829.752H1017.25C1017.64 827 1019.3 825.432 1021.93 825.432ZM1041.6 823.224C1041 823.096 1040.55 823.032 1040 823.032C1037.86 823.032 1036.29 824.12 1035.65 825.752L1035.46 823.384H1032.64V839H1035.65V830.712C1035.65 827.704 1037.41 825.976 1040.26 825.976H1041.6V823.224ZM1047.43 839V830.712C1047.43 827.672 1049.07 825.656 1051.88 825.656C1054.19 825.656 1055.66 826.936 1055.66 830.104V839H1058.67V829.432C1058.67 825.432 1056.78 822.904 1052.65 822.904C1050.44 822.904 1048.46 823.96 1047.47 825.752L1047.15 823.352H1044.43V839H1047.43ZM1061.36 834.456C1061.36 837.432 1063.7 839.384 1067.38 839.384C1071.09 839.384 1073.65 837.496 1073.65 834.52C1073.65 832.184 1072.34 830.968 1069.68 830.328L1066.93 829.656C1065.4 829.272 1064.63 828.568 1064.63 827.512C1064.63 826.072 1065.68 825.24 1067.57 825.24C1069.4 825.24 1070.45 826.232 1070.52 827.8H1073.4C1073.33 824.824 1071.09 822.904 1067.67 822.904C1064.21 822.904 1061.78 824.728 1061.78 827.608C1061.78 829.912 1063.09 831.288 1065.88 831.96L1068.63 832.6C1070.26 833.016 1070.77 833.656 1070.77 834.712C1070.77 836.152 1069.56 837.016 1067.44 837.016C1065.46 837.016 1064.24 836.056 1064.24 834.456H1061.36Z" fill="#F2F2F2"/>
<rect x="1071" y="894" width="229" height="35" rx="17.5" fill="#E4E4E4"/>
<path d="M1086.64 919V913.28H1090.34L1093.04 919H1095.22L1092.28 912.9C1094.08 912.32 1095.08 910.88 1095.08 908.88C1095.08 906.18 1093.24 904.54 1090.14 904.54H1084.68V919H1086.64ZM1086.64 906.3H1090.14C1091.94 906.3 1093.02 907.22 1093.02 908.9C1093.02 910.56 1091.98 911.54 1090.16 911.54H1086.64V906.3ZM1100.96 919.24C1103.38 919.24 1105.02 918.06 1105.5 915.96H1103.74C1103.42 917.08 1102.46 917.68 1101 917.68C1099.14 917.68 1098.06 916.54 1097.92 914.48L1105.48 914.46V913.76C1105.48 910.86 1103.66 908.94 1100.88 908.94C1098.04 908.94 1096.1 911.06 1096.1 914.12C1096.1 917.16 1098.08 919.24 1100.96 919.24ZM1100.88 910.52C1102.54 910.52 1103.6 911.6 1103.6 913.22H1097.96C1098.2 911.5 1099.24 910.52 1100.88 910.52ZM1106.78 916.16C1106.78 918.02 1108.24 919.24 1110.54 919.24C1112.86 919.24 1114.46 918.06 1114.46 916.2C1114.46 914.74 1113.64 913.98 1111.98 913.58L1110.26 913.16C1109.3 912.92 1108.82 912.48 1108.82 911.82C1108.82 910.92 1109.48 910.4 1110.66 910.4C1111.8 910.4 1112.46 911.02 1112.5 912H1114.3C1114.26 910.14 1112.86 908.94 1110.72 908.94C1108.56 908.94 1107.04 910.08 1107.04 911.88C1107.04 913.32 1107.86 914.18 1109.6 914.6L1111.32 915C1112.34 915.26 1112.66 915.66 1112.66 916.32C1112.66 917.22 1111.9 917.76 1110.58 917.76C1109.34 917.76 1108.58 917.16 1108.58 916.16H1106.78ZM1120.77 919.24C1123.19 919.24 1124.83 918.06 1125.31 915.96H1123.55C1123.23 917.08 1122.27 917.68 1120.81 917.68C1118.95 917.68 1117.87 916.54 1117.73 914.48L1125.29 914.46V913.76C1125.29 910.86 1123.47 908.94 1120.69 908.94C1117.85 908.94 1115.91 911.06 1115.91 914.12C1115.91 917.16 1117.89 919.24 1120.77 919.24ZM1120.69 910.52C1122.35 910.52 1123.41 911.6 1123.41 913.22H1117.77C1118.01 911.5 1119.05 910.52 1120.69 910.52ZM1130.15 919.24C1131.73 919.24 1133.07 918.54 1133.57 917.42L1133.77 919H1135.37V912.86C1135.37 910.22 1133.73 908.94 1131.31 908.94C1128.79 908.94 1127.11 910.28 1127.11 912.32H1128.75C1128.75 911.14 1129.65 910.44 1131.23 910.44C1132.55 910.44 1133.53 911.02 1133.53 912.66V912.94L1130.45 913.18C1128.15 913.36 1126.81 914.48 1126.81 916.28C1126.81 918.06 1128.05 919.24 1130.15 919.24ZM1130.69 917.78C1129.47 917.78 1128.71 917.26 1128.71 916.22C1128.71 915.26 1129.39 914.62 1131.05 914.46L1133.55 914.26V914.78C1133.55 916.62 1132.47 917.78 1130.69 917.78ZM1143.57 909.14C1143.19 909.06 1142.91 909.02 1142.57 909.02C1141.23 909.02 1140.25 909.7 1139.85 910.72L1139.73 909.24H1137.97V919H1139.85V913.82C1139.85 911.94 1140.95 910.86 1142.73 910.86H1143.57V909.14ZM1144.35 914.12C1144.35 917.2 1146.25 919.24 1149.13 919.24C1151.49 919.24 1153.31 917.82 1153.69 915.7H1151.81C1151.47 916.86 1150.47 917.56 1149.13 917.56C1147.35 917.56 1146.21 916.2 1146.21 914.1C1146.21 911.98 1147.43 910.62 1149.21 910.62C1150.47 910.62 1151.47 911.28 1151.79 912.52H1153.67C1153.33 910.34 1151.61 908.94 1149.15 908.94C1146.29 908.94 1144.35 911.06 1144.35 914.12ZM1157.55 918.98V913.66C1157.55 911.98 1158.53 910.66 1160.35 910.66C1161.75 910.66 1162.69 911.46 1162.69 913.44V919H1164.57V913.02C1164.57 910.52 1163.37 908.94 1160.87 908.94C1159.35 908.94 1158.17 909.66 1157.55 910.72V904.28H1155.67V918.98H1157.55ZM1176.86 922.46C1175.16 920.12 1174.16 916.6 1174.16 913.06C1174.16 909.32 1175.28 905.88 1176.86 903.68H1175.3C1173.34 906.1 1172.24 909.66 1172.24 913.06C1172.24 916.68 1173.46 920.16 1175.3 922.46H1176.86ZM1184.55 919.22C1187.81 919.22 1190.39 917.3 1191.01 914.42H1188.93C1188.39 916.2 1186.71 917.34 1184.59 917.34C1181.67 917.34 1179.75 915.14 1179.75 911.76C1179.75 908.38 1181.67 906.18 1184.59 906.18C1186.69 906.18 1188.31 907.32 1188.85 909.2H1190.95C1190.41 906.24 1187.91 904.3 1184.65 904.3C1180.51 904.3 1177.69 907.32 1177.69 911.78C1177.69 916.26 1180.43 919.22 1184.55 919.22ZM1192.45 914.1C1192.45 917.12 1194.61 919.24 1197.55 919.24C1200.47 919.24 1202.63 917.12 1202.63 914.1C1202.63 911.08 1200.47 908.96 1197.55 908.96C1194.61 908.96 1192.45 911.08 1192.45 914.1ZM1194.35 914.1C1194.35 912.06 1195.65 910.64 1197.55 910.64C1199.43 910.64 1200.75 912.06 1200.75 914.1C1200.75 916.14 1199.43 917.56 1197.55 917.56C1195.65 917.56 1194.35 916.14 1194.35 914.1ZM1206.59 919V913.2C1206.59 911.64 1207.53 910.66 1208.95 910.66C1210.27 910.66 1211.11 911.5 1211.11 913.04V919H1212.97V913.2C1212.97 911.64 1213.91 910.64 1215.33 910.64C1216.65 910.64 1217.51 911.52 1217.51 913.06V919H1219.35V912.6C1219.35 910.34 1217.99 908.94 1215.75 908.94C1214.23 908.94 1213.05 909.7 1212.59 910.92C1212.09 909.7 1211.01 908.94 1209.49 908.94C1208.11 908.94 1207.07 909.58 1206.57 910.5L1206.39 909.22H1204.71V919H1206.59ZM1223.84 919V913.2C1223.84 911.64 1224.78 910.66 1226.2 910.66C1227.52 910.66 1228.36 911.5 1228.36 913.04V919H1230.22V913.2C1230.22 911.64 1231.16 910.64 1232.58 910.64C1233.9 910.64 1234.76 911.52 1234.76 913.06V919H1236.6V912.6C1236.6 910.34 1235.24 908.94 1233 908.94C1231.48 908.94 1230.3 909.7 1229.84 910.92C1229.34 909.7 1228.26 908.94 1226.74 908.94C1225.36 908.94 1224.32 909.58 1223.82 910.5L1223.64 909.22H1221.96V919H1223.84ZM1245.96 909.22V914.38C1245.96 916.48 1245.02 917.58 1243.3 917.58C1241.86 917.58 1240.96 916.78 1240.96 914.68V909.22H1239.08V915.3C1239.08 917.7 1240.36 919.24 1242.64 919.24C1244.08 919.24 1245.38 918.54 1245.94 917.52L1246.14 919H1247.82V909.22H1245.96ZM1252.43 919V913.82C1252.43 911.92 1253.45 910.66 1255.21 910.66C1256.65 910.66 1257.57 911.46 1257.57 913.44V919H1259.45V913.02C1259.45 910.52 1258.27 908.94 1255.69 908.94C1254.31 908.94 1253.07 909.6 1252.45 910.72L1252.25 909.22H1250.55V919H1252.43ZM1262.98 906.9C1263.66 906.9 1264.22 906.34 1264.22 905.66C1264.22 904.96 1263.66 904.42 1262.98 904.42C1262.3 904.42 1261.74 904.96 1261.74 905.66C1261.74 906.34 1262.3 906.9 1262.98 906.9ZM1262.06 919H1263.94V909.22H1262.06V919ZM1269.42 919V910.8H1271.34V909.22H1269.42V906.16H1267.54V909.22H1265.62V910.8H1267.54V919H1269.42ZM1272.09 923.38C1272.59 923.5 1273.11 923.58 1273.73 923.58C1275.23 923.58 1276.21 922.88 1276.87 921.2L1281.49 909.22H1279.55L1276.65 917.1L1273.81 909.22H1271.83L1275.77 919.52L1275.43 920.46C1274.97 921.7 1274.25 921.84 1273.35 921.84H1272.09V923.38ZM1283.21 922.46C1285.03 920.16 1286.25 916.68 1286.25 913.06C1286.25 909.66 1285.15 906.1 1283.21 903.68H1281.63C1283.23 905.88 1284.33 909.32 1284.33 913.06C1284.33 916.6 1283.33 920.12 1281.63 922.46H1283.21Z" fill="#202020"/>
<path d="M882.736 573L884.272 568.68H891.568L893.128 573H895.6L889.24 555.648H886.624L880.288 573H882.736ZM887.632 559.392C887.752 559.032 887.872 558.624 887.92 558.384C887.968 558.648 888.088 559.056 888.208 559.392L890.872 566.64H884.992L887.632 559.392ZM896.568 566.832C896.568 570.12 898.68 572.688 902.016 572.688C903.864 572.688 905.4 571.872 906.168 570.504V572.856C906.168 575.088 904.728 576.528 902.52 576.528C900.552 576.528 899.256 575.52 898.968 573.792H896.712C897.144 576.768 899.328 578.568 902.52 578.568C906.12 578.568 908.4 576.216 908.4 572.52V561.264H906.384L906.216 563.256C905.472 561.792 904.008 560.928 902.112 560.928C898.704 560.928 896.568 563.52 896.568 566.832ZM898.824 566.784C898.824 564.624 900.168 562.896 902.424 562.896C904.728 562.896 906.072 564.528 906.072 566.784C906.072 569.088 904.68 570.72 902.4 570.72C900.192 570.72 898.824 568.992 898.824 566.784ZM916.719 573.288C919.623 573.288 921.591 571.872 922.167 569.352H920.055C919.671 570.696 918.519 571.416 916.767 571.416C914.535 571.416 913.239 570.048 913.071 567.576L922.143 567.552V566.712C922.143 563.232 919.959 560.928 916.623 560.928C913.215 560.928 910.887 563.472 910.887 567.144C910.887 570.792 913.263 573.288 916.719 573.288ZM916.623 562.824C918.615 562.824 919.887 564.12 919.887 566.064H913.119C913.407 564 914.655 562.824 916.623 562.824ZM926.919 573V566.784C926.919 564.504 928.143 562.992 930.255 562.992C931.983 562.992 933.087 563.952 933.087 566.328V573H935.343V565.824C935.343 562.824 933.927 560.928 930.831 560.928C929.175 560.928 927.687 561.72 926.943 563.064L926.703 561.264H924.663V573H926.919ZM943.172 573.288C945.044 573.288 946.628 572.472 947.396 570.864L947.588 573H949.604V555.336H947.372V563.16C946.58 561.72 945.068 560.928 943.268 560.928C939.788 560.928 937.7 563.568 937.7 567.168C937.7 570.744 939.764 573.288 943.172 573.288ZM943.628 571.248C941.324 571.248 939.98 569.52 939.98 567.096C939.98 564.696 941.324 562.968 943.628 562.968C945.932 562.968 947.348 564.696 947.348 567.096C947.348 569.544 945.932 571.248 943.628 571.248ZM956.291 573.288C958.187 573.288 959.795 572.448 960.395 571.104L960.635 573H962.555V565.632C962.555 562.464 960.587 560.928 957.683 560.928C954.659 560.928 952.643 562.536 952.643 564.984H954.611C954.611 563.568 955.691 562.728 957.587 562.728C959.171 562.728 960.347 563.424 960.347 565.392V565.728L956.651 566.016C953.891 566.232 952.283 567.576 952.283 569.736C952.283 571.872 953.771 573.288 956.291 573.288ZM956.939 571.536C955.475 571.536 954.563 570.912 954.563 569.664C954.563 568.512 955.379 567.744 957.371 567.552L960.371 567.312V567.936C960.371 570.144 959.075 571.536 956.939 571.536ZM976.129 573H978.433L982.681 559.272L986.881 573H989.137L994.369 555.648H991.969L988.777 566.28C988.537 567.048 988.297 567.936 988.009 569.4C987.745 568.104 987.505 567.192 987.217 566.256L983.953 555.648H981.409L978.121 566.256C977.857 567.168 977.593 568.008 977.305 569.4C977.065 568.08 976.825 567.168 976.585 566.256L973.417 555.648H970.969L976.129 573ZM997.463 558.48C998.279 558.48 998.951 557.808 998.951 556.992C998.951 556.152 998.279 555.504 997.463 555.504C996.647 555.504 995.975 556.152 995.975 556.992C995.975 557.808 996.647 558.48 997.463 558.48ZM996.359 573H998.615V561.264H996.359V573ZM1004.15 573V566.784C1004.15 564.504 1005.37 562.992 1007.48 562.992C1009.21 562.992 1010.31 563.952 1010.31 566.328V573H1012.57V565.824C1012.57 562.824 1011.15 560.928 1008.06 560.928C1006.4 560.928 1004.91 561.72 1004.17 563.064L1003.93 561.264H1001.89V573H1004.15ZM1014.95 566.832C1014.95 570.12 1017.06 572.688 1020.4 572.688C1022.25 572.688 1023.78 571.872 1024.55 570.504V572.856C1024.55 575.088 1023.11 576.528 1020.9 576.528C1018.93 576.528 1017.64 575.52 1017.35 573.792H1015.09C1015.53 576.768 1017.71 578.568 1020.9 578.568C1024.5 578.568 1026.78 576.216 1026.78 572.52V561.264H1024.77L1024.6 563.256C1023.85 561.792 1022.39 560.928 1020.49 560.928C1017.09 560.928 1014.95 563.52 1014.95 566.832ZM1017.21 566.784C1017.21 564.624 1018.55 562.896 1020.81 562.896C1023.11 562.896 1024.45 564.528 1024.45 566.784C1024.45 569.088 1023.06 570.72 1020.78 570.72C1018.57 570.72 1017.21 568.992 1017.21 566.784ZM1029.08 569.592C1029.08 571.824 1030.83 573.288 1033.59 573.288C1036.37 573.288 1038.29 571.872 1038.29 569.64C1038.29 567.888 1037.31 566.976 1035.32 566.496L1033.25 565.992C1032.1 565.704 1031.53 565.176 1031.53 564.384C1031.53 563.304 1032.32 562.68 1033.73 562.68C1035.1 562.68 1035.89 563.424 1035.94 564.6H1038.1C1038.05 562.368 1036.37 560.928 1033.81 560.928C1031.21 560.928 1029.39 562.296 1029.39 564.456C1029.39 566.184 1030.37 567.216 1032.46 567.72L1034.53 568.2C1035.75 568.512 1036.13 568.992 1036.13 569.784C1036.13 570.864 1035.22 571.512 1033.64 571.512C1032.15 571.512 1031.24 570.792 1031.24 569.592H1029.08Z" fill="#292929"/>
<rect x="1071" y="944" width="121" height="35" rx="17.5" fill="#E4E4E4"/>
<path d="M1092.32 962.86V961.08H1086.64V956.34H1093.4V954.54H1084.68V969H1086.64V962.86H1092.32ZM1098.91 969.24C1101.33 969.24 1102.97 968.06 1103.45 965.96H1101.69C1101.37 967.08 1100.41 967.68 1098.95 967.68C1097.09 967.68 1096.01 966.54 1095.87 964.48L1103.43 964.46V963.76C1103.43 960.86 1101.61 958.94 1098.83 958.94C1095.99 958.94 1094.05 961.06 1094.05 964.12C1094.05 967.16 1096.03 969.24 1098.91 969.24ZM1098.83 960.52C1100.49 960.52 1101.55 961.6 1101.55 963.22H1095.91C1096.15 961.5 1097.19 960.52 1098.83 960.52ZM1109.75 969.24C1112.17 969.24 1113.81 968.06 1114.29 965.96H1112.53C1112.21 967.08 1111.25 967.68 1109.79 967.68C1107.93 967.68 1106.85 966.54 1106.71 964.48L1114.27 964.46V963.76C1114.27 960.86 1112.45 958.94 1109.67 958.94C1106.83 958.94 1104.89 961.06 1104.89 964.12C1104.89 967.16 1106.87 969.24 1109.75 969.24ZM1109.67 960.52C1111.33 960.52 1112.39 961.6 1112.39 963.22H1106.75C1106.99 961.5 1108.03 960.52 1109.67 960.52ZM1120.29 969.24C1121.85 969.24 1123.17 968.56 1123.81 967.22L1123.97 969H1125.65V954.28H1123.79V960.8C1123.13 959.6 1121.87 958.94 1120.37 958.94C1117.47 958.94 1115.73 961.14 1115.73 964.14C1115.73 967.12 1117.45 969.24 1120.29 969.24ZM1120.67 967.54C1118.75 967.54 1117.63 966.1 1117.63 964.08C1117.63 962.08 1118.75 960.64 1120.67 960.64C1122.59 960.64 1123.77 962.08 1123.77 964.08C1123.77 966.12 1122.59 967.54 1120.67 967.54ZM1130.06 969L1130.2 967.22C1130.84 968.56 1132.14 969.24 1133.68 969.24C1136.52 969.24 1138.28 967.12 1138.28 964.16C1138.28 961.14 1136.6 958.94 1133.8 958.94C1132.2 958.94 1130.88 959.62 1130.24 960.9V954.28H1128.36V969H1130.06ZM1130.26 964.08C1130.26 962.08 1131.42 960.64 1133.34 960.64C1135.26 960.64 1136.4 962.08 1136.4 964.08C1136.4 966.1 1135.26 967.54 1133.34 967.54C1131.42 967.54 1130.26 966.12 1130.26 964.08ZM1143.22 969.24C1144.8 969.24 1146.14 968.54 1146.64 967.42L1146.84 969H1148.44V962.86C1148.44 960.22 1146.8 958.94 1144.38 958.94C1141.86 958.94 1140.18 960.28 1140.18 962.32H1141.82C1141.82 961.14 1142.72 960.44 1144.3 960.44C1145.62 960.44 1146.6 961.02 1146.6 962.66V962.94L1143.52 963.18C1141.22 963.36 1139.88 964.48 1139.88 966.28C1139.88 968.06 1141.12 969.24 1143.22 969.24ZM1143.76 967.78C1142.54 967.78 1141.78 967.26 1141.78 966.22C1141.78 965.26 1142.46 964.62 1144.12 964.46L1146.62 964.26V964.78C1146.62 966.62 1145.54 967.78 1143.76 967.78ZM1150.4 964.12C1150.4 967.2 1152.3 969.24 1155.18 969.24C1157.54 969.24 1159.36 967.82 1159.74 965.7H1157.86C1157.52 966.86 1156.52 967.56 1155.18 967.56C1153.4 967.56 1152.26 966.2 1152.26 964.1C1152.26 961.98 1153.48 960.62 1155.26 960.62C1156.52 960.62 1157.52 961.28 1157.84 962.52H1159.72C1159.38 960.34 1157.66 958.94 1155.2 958.94C1152.34 958.94 1150.4 961.06 1150.4 964.12ZM1163.64 969V966.22L1165.3 964.48L1168.16 969H1170.32L1166.6 963.12L1170.34 959.22H1167.98L1163.64 963.82V954.28H1161.76V969H1163.64ZM1171.14 966.16C1171.14 968.02 1172.6 969.24 1174.9 969.24C1177.22 969.24 1178.82 968.06 1178.82 966.2C1178.82 964.74 1178 963.98 1176.34 963.58L1174.62 963.16C1173.66 962.92 1173.18 962.48 1173.18 961.82C1173.18 960.92 1173.84 960.4 1175.02 960.4C1176.16 960.4 1176.82 961.02 1176.86 962H1178.66C1178.62 960.14 1177.22 958.94 1175.08 958.94C1172.92 958.94 1171.4 960.08 1171.4 961.88C1171.4 963.32 1172.22 964.18 1173.96 964.6L1175.68 965C1176.7 965.26 1177.02 965.66 1177.02 966.32C1177.02 967.22 1176.26 967.76 1174.94 967.76C1173.7 967.76 1172.94 967.16 1172.94 966.16H1171.14Z" fill="#202020"/>
<rect x="1071" y="996" width="214" height="35" rx="17.5" fill="#E4E4E4"/>
<path d="M1090.68 1021.22C1093.94 1021.22 1096.52 1019.3 1097.14 1016.42H1095.06C1094.52 1018.2 1092.84 1019.34 1090.72 1019.34C1087.8 1019.34 1085.88 1017.14 1085.88 1013.76C1085.88 1010.38 1087.8 1008.18 1090.72 1008.18C1092.82 1008.18 1094.44 1009.32 1094.98 1011.2H1097.08C1096.54 1008.24 1094.04 1006.3 1090.78 1006.3C1086.64 1006.3 1083.82 1009.32 1083.82 1013.78C1083.82 1018.26 1086.56 1021.22 1090.68 1021.22ZM1098.58 1016.1C1098.58 1019.12 1100.74 1021.24 1103.68 1021.24C1106.6 1021.24 1108.76 1019.12 1108.76 1016.1C1108.76 1013.08 1106.6 1010.96 1103.68 1010.96C1100.74 1010.96 1098.58 1013.08 1098.58 1016.1ZM1100.48 1016.1C1100.48 1014.06 1101.78 1012.64 1103.68 1012.64C1105.56 1012.64 1106.88 1014.06 1106.88 1016.1C1106.88 1018.14 1105.56 1019.56 1103.68 1019.56C1101.78 1019.56 1100.48 1018.14 1100.48 1016.1ZM1112.72 1021V1015.2C1112.72 1013.64 1113.66 1012.66 1115.08 1012.66C1116.4 1012.66 1117.24 1013.5 1117.24 1015.04V1021H1119.1V1015.2C1119.1 1013.64 1120.04 1012.64 1121.46 1012.64C1122.78 1012.64 1123.64 1013.52 1123.64 1015.06V1021H1125.48V1014.6C1125.48 1012.34 1124.12 1010.94 1121.88 1010.94C1120.36 1010.94 1119.18 1011.7 1118.72 1012.92C1118.22 1011.7 1117.14 1010.94 1115.62 1010.94C1114.24 1010.94 1113.2 1011.58 1112.7 1012.5L1112.52 1011.22H1110.84V1021H1112.72ZM1129.97 1021V1015.2C1129.97 1013.64 1130.91 1012.66 1132.33 1012.66C1133.65 1012.66 1134.49 1013.5 1134.49 1015.04V1021H1136.35V1015.2C1136.35 1013.64 1137.29 1012.64 1138.71 1012.64C1140.03 1012.64 1140.89 1013.52 1140.89 1015.06V1021H1142.73V1014.6C1142.73 1012.34 1141.37 1010.94 1139.13 1010.94C1137.61 1010.94 1136.43 1011.7 1135.97 1012.92C1135.47 1011.7 1134.39 1010.94 1132.87 1010.94C1131.49 1010.94 1130.45 1011.58 1129.95 1012.5L1129.77 1011.22H1128.09V1021H1129.97ZM1152.1 1011.22V1016.38C1152.1 1018.48 1151.16 1019.58 1149.44 1019.58C1148 1019.58 1147.1 1018.78 1147.1 1016.68V1011.22H1145.22V1017.3C1145.22 1019.7 1146.5 1021.24 1148.78 1021.24C1150.22 1021.24 1151.52 1020.54 1152.08 1019.52L1152.28 1021H1153.96V1011.22H1152.1ZM1158.56 1021V1015.82C1158.56 1013.92 1159.58 1012.66 1161.34 1012.66C1162.78 1012.66 1163.7 1013.46 1163.7 1015.44V1021H1165.58V1015.02C1165.58 1012.52 1164.4 1010.94 1161.82 1010.94C1160.44 1010.94 1159.2 1011.6 1158.58 1012.72L1158.38 1011.22H1156.68V1021H1158.56ZM1169.11 1008.9C1169.79 1008.9 1170.35 1008.34 1170.35 1007.66C1170.35 1006.96 1169.79 1006.42 1169.11 1006.42C1168.43 1006.42 1167.87 1006.96 1167.87 1007.66C1167.87 1008.34 1168.43 1008.9 1169.11 1008.9ZM1168.19 1021H1170.07V1011.22H1168.19V1021ZM1175.56 1021V1012.8H1177.48V1011.22H1175.56V1008.16H1173.68V1011.22H1171.76V1012.8H1173.68V1021H1175.56ZM1178.22 1025.38C1178.72 1025.5 1179.24 1025.58 1179.86 1025.58C1181.36 1025.58 1182.34 1024.88 1183 1023.2L1187.62 1011.22H1185.68L1182.78 1019.1L1179.94 1011.22H1177.96L1181.9 1021.52L1181.56 1022.46C1181.1 1023.7 1180.38 1023.84 1179.48 1023.84H1178.22V1025.38ZM1195.51 1021L1196.79 1017.4H1202.87L1204.17 1021H1206.23L1200.93 1006.54H1198.75L1193.47 1021H1195.51ZM1199.59 1009.66C1199.69 1009.36 1199.79 1009.02 1199.83 1008.82C1199.87 1009.04 1199.97 1009.38 1200.07 1009.66L1202.29 1015.7H1197.39L1199.59 1009.66ZM1207.04 1015.86C1207.04 1018.6 1208.8 1020.74 1211.58 1020.74C1213.12 1020.74 1214.4 1020.06 1215.04 1018.92V1020.88C1215.04 1022.74 1213.84 1023.94 1212 1023.94C1210.36 1023.94 1209.28 1023.1 1209.04 1021.66H1207.16C1207.52 1024.14 1209.34 1025.64 1212 1025.64C1215 1025.64 1216.9 1023.68 1216.9 1020.6V1011.22H1215.22L1215.08 1012.88C1214.46 1011.66 1213.24 1010.94 1211.66 1010.94C1208.82 1010.94 1207.04 1013.1 1207.04 1015.86ZM1208.92 1015.82C1208.92 1014.02 1210.04 1012.58 1211.92 1012.58C1213.84 1012.58 1214.96 1013.94 1214.96 1015.82C1214.96 1017.74 1213.8 1019.1 1211.9 1019.1C1210.06 1019.1 1208.92 1017.66 1208.92 1015.82ZM1223.83 1021.24C1226.25 1021.24 1227.89 1020.06 1228.37 1017.96H1226.61C1226.29 1019.08 1225.33 1019.68 1223.87 1019.68C1222.01 1019.68 1220.93 1018.54 1220.79 1016.48L1228.35 1016.46V1015.76C1228.35 1012.86 1226.53 1010.94 1223.75 1010.94C1220.91 1010.94 1218.97 1013.06 1218.97 1016.12C1218.97 1019.16 1220.95 1021.24 1223.83 1021.24ZM1223.75 1012.52C1225.41 1012.52 1226.47 1013.6 1226.47 1015.22H1220.83C1221.07 1013.5 1222.11 1012.52 1223.75 1012.52ZM1232.33 1021V1015.82C1232.33 1013.92 1233.35 1012.66 1235.11 1012.66C1236.55 1012.66 1237.47 1013.46 1237.47 1015.44V1021H1239.35V1015.02C1239.35 1012.52 1238.17 1010.94 1235.59 1010.94C1234.21 1010.94 1232.97 1011.6 1232.35 1012.72L1232.15 1011.22H1230.45V1021H1232.33ZM1245.88 1021.24C1247.44 1021.24 1248.76 1020.56 1249.4 1019.22L1249.56 1021H1251.24V1006.28H1249.38V1012.8C1248.72 1011.6 1247.46 1010.94 1245.96 1010.94C1243.06 1010.94 1241.32 1013.14 1241.32 1016.14C1241.32 1019.12 1243.04 1021.24 1245.88 1021.24ZM1246.26 1019.54C1244.34 1019.54 1243.22 1018.1 1243.22 1016.08C1243.22 1014.08 1244.34 1012.64 1246.26 1012.64C1248.18 1012.64 1249.36 1014.08 1249.36 1016.08C1249.36 1018.12 1248.18 1019.54 1246.26 1019.54ZM1256.81 1021.24C1258.39 1021.24 1259.73 1020.54 1260.23 1019.42L1260.43 1021H1262.03V1014.86C1262.03 1012.22 1260.39 1010.94 1257.97 1010.94C1255.45 1010.94 1253.77 1012.28 1253.77 1014.32H1255.41C1255.41 1013.14 1256.31 1012.44 1257.89 1012.44C1259.21 1012.44 1260.19 1013.02 1260.19 1014.66V1014.94L1257.11 1015.18C1254.81 1015.36 1253.47 1016.48 1253.47 1018.28C1253.47 1020.06 1254.71 1021.24 1256.81 1021.24ZM1257.35 1019.78C1256.13 1019.78 1255.37 1019.26 1255.37 1018.22C1255.37 1017.26 1256.05 1016.62 1257.71 1016.46L1260.21 1016.26V1016.78C1260.21 1018.62 1259.13 1019.78 1257.35 1019.78ZM1263.83 1018.16C1263.83 1020.02 1265.29 1021.24 1267.59 1021.24C1269.91 1021.24 1271.51 1020.06 1271.51 1018.2C1271.51 1016.74 1270.69 1015.98 1269.03 1015.58L1267.31 1015.16C1266.35 1014.92 1265.87 1014.48 1265.87 1013.82C1265.87 1012.92 1266.53 1012.4 1267.71 1012.4C1268.85 1012.4 1269.51 1013.02 1269.55 1014H1271.35C1271.31 1012.14 1269.91 1010.94 1267.77 1010.94C1265.61 1010.94 1264.09 1012.08 1264.09 1013.88C1264.09 1015.32 1264.91 1016.18 1266.65 1016.6L1268.37 1017C1269.39 1017.26 1269.71 1017.66 1269.71 1018.32C1269.71 1019.22 1268.95 1019.76 1267.63 1019.76C1266.39 1019.76 1265.63 1019.16 1265.63 1018.16H1263.83Z" fill="#202020"/>
<rect x="1020" y="619" width="339" height="83" rx="41.5" fill="#112B4B"/>
<path d="M1054.72 664.776C1054.72 670.12 1058.11 673.384 1063.58 673.384C1069.02 673.384 1072.41 670.088 1072.41 664.776V649.864H1069.24V664.584C1069.24 668.264 1067.23 670.344 1063.58 670.344C1059.9 670.344 1057.85 668.296 1057.85 664.584V649.864H1054.72V664.776ZM1086.07 657.224C1085.47 657.096 1085.02 657.032 1084.47 657.032C1082.33 657.032 1080.76 658.12 1080.12 659.752L1079.93 657.384H1077.11V673H1080.12V664.712C1080.12 661.704 1081.88 659.976 1084.73 659.976H1086.07V657.224ZM1091.61 673L1091.84 670.152C1092.86 672.296 1094.94 673.384 1097.41 673.384C1101.95 673.384 1104.77 669.992 1104.77 665.256C1104.77 660.424 1102.08 656.904 1097.6 656.904C1095.04 656.904 1092.93 657.992 1091.9 660.04V649.448H1088.89V673H1091.61ZM1091.93 665.128C1091.93 661.928 1093.79 659.624 1096.86 659.624C1099.93 659.624 1101.76 661.928 1101.76 665.128C1101.76 668.36 1099.93 670.664 1096.86 670.664C1093.79 670.664 1091.93 668.392 1091.93 665.128ZM1112.66 673.384C1115.19 673.384 1117.33 672.264 1118.13 670.472L1118.45 673H1121.01V663.176C1121.01 658.952 1118.39 656.904 1114.51 656.904C1110.48 656.904 1107.79 659.048 1107.79 662.312H1110.42C1110.42 660.424 1111.86 659.304 1114.39 659.304C1116.5 659.304 1118.07 660.232 1118.07 662.856V663.304L1113.14 663.688C1109.46 663.976 1107.31 665.768 1107.31 668.648C1107.31 671.496 1109.3 673.384 1112.66 673.384ZM1113.52 671.048C1111.57 671.048 1110.35 670.216 1110.35 668.552C1110.35 667.016 1111.44 665.992 1114.1 665.736L1118.1 665.416V666.248C1118.1 669.192 1116.37 671.048 1113.52 671.048ZM1128.18 673V664.712C1128.18 661.672 1129.82 659.656 1132.63 659.656C1134.94 659.656 1136.41 660.936 1136.41 664.104V673H1139.42V663.432C1139.42 659.432 1137.53 656.904 1133.4 656.904C1131.19 656.904 1129.21 657.96 1128.22 659.752L1127.9 657.352H1125.18V673H1128.18ZM1153.8 673L1155.85 667.24H1165.58L1167.66 673H1170.96L1162.48 649.864H1158.99L1150.54 673H1153.8ZM1160.33 654.856C1160.49 654.376 1160.65 653.832 1160.72 653.512C1160.78 653.864 1160.94 654.408 1161.1 654.856L1164.65 664.52H1156.81L1160.33 654.856ZM1182.48 657.224C1181.87 657.096 1181.42 657.032 1180.88 657.032C1178.74 657.032 1177.17 658.12 1176.53 659.752L1176.34 657.384H1173.52V673H1176.53V664.712C1176.53 661.704 1178.29 659.976 1181.14 659.976H1182.48V657.224ZM1183.71 665.192C1183.71 670.12 1186.75 673.384 1191.36 673.384C1195.14 673.384 1198.05 671.112 1198.66 667.72H1195.65C1195.11 669.576 1193.51 670.696 1191.36 670.696C1188.51 670.696 1186.69 668.52 1186.69 665.16C1186.69 661.768 1188.64 659.592 1191.49 659.592C1193.51 659.592 1195.11 660.648 1195.62 662.632H1198.63C1198.08 659.144 1195.33 656.904 1191.39 656.904C1186.82 656.904 1183.71 660.296 1183.71 665.192ZM1204.84 672.968V664.456C1204.84 661.768 1206.41 659.656 1209.32 659.656C1211.56 659.656 1213.06 660.936 1213.06 664.104V673H1216.07V663.432C1216.07 659.432 1214.15 656.904 1210.15 656.904C1207.72 656.904 1205.83 658.056 1204.84 659.752V649.448H1201.83V672.968H1204.84ZM1221.71 653.64C1222.8 653.64 1223.69 652.744 1223.69 651.656C1223.69 650.536 1222.8 649.672 1221.71 649.672C1220.62 649.672 1219.73 650.536 1219.73 651.656C1219.73 652.744 1220.62 653.64 1221.71 653.64ZM1220.24 673H1223.25V657.352H1220.24V673ZM1232.03 673V659.88H1235.1V657.352H1232.03V652.456H1229.02V657.352H1225.95V659.88H1229.02V673H1232.03ZM1244.4 673.384C1248.27 673.384 1250.89 671.496 1251.66 668.136H1248.84C1248.33 669.928 1246.8 670.888 1244.46 670.888C1241.48 670.888 1239.76 669.064 1239.53 665.768L1251.63 665.736V664.616C1251.63 659.976 1248.72 656.904 1244.27 656.904C1239.72 656.904 1236.62 660.296 1236.62 665.192C1236.62 670.056 1239.79 673.384 1244.4 673.384ZM1244.27 659.432C1246.92 659.432 1248.62 661.16 1248.62 663.752H1239.6C1239.98 661 1241.64 659.432 1244.27 659.432ZM1253.96 665.192C1253.96 670.12 1257 673.384 1261.61 673.384C1265.39 673.384 1268.3 671.112 1268.91 667.72H1265.9C1265.36 669.576 1263.76 670.696 1261.61 670.696C1258.76 670.696 1256.94 668.52 1256.94 665.16C1256.94 661.768 1258.89 659.592 1261.74 659.592C1263.76 659.592 1265.36 660.648 1265.87 662.632H1268.88C1268.33 659.144 1265.58 656.904 1261.64 656.904C1257.07 656.904 1253.96 660.296 1253.96 665.192ZM1276.5 673V659.88H1279.57V657.352H1276.5V652.456H1273.49V657.352H1270.42V659.88H1273.49V673H1276.5ZM1293.09 657.352V665.608C1293.09 668.968 1291.58 670.728 1288.83 670.728C1286.53 670.728 1285.09 669.448 1285.09 666.088V657.352H1282.08V667.08C1282.08 670.92 1284.13 673.384 1287.77 673.384C1290.08 673.384 1292.16 672.264 1293.05 670.632L1293.37 673H1296.06V657.352H1293.09ZM1309.39 657.224C1308.78 657.096 1308.33 657.032 1307.79 657.032C1305.64 657.032 1304.07 658.12 1303.43 659.752L1303.24 657.384H1300.43V673H1303.43V664.712C1303.43 661.704 1305.19 659.976 1308.04 659.976H1309.39V657.224ZM1318.4 673.384C1322.27 673.384 1324.89 671.496 1325.66 668.136H1322.84C1322.33 669.928 1320.8 670.888 1318.46 670.888C1315.48 670.888 1313.76 669.064 1313.53 665.768L1325.63 665.736V664.616C1325.63 659.976 1322.72 656.904 1318.27 656.904C1313.72 656.904 1310.62 660.296 1310.62 665.192C1310.62 670.056 1313.79 673.384 1318.4 673.384ZM1318.27 659.432C1320.92 659.432 1322.62 661.16 1322.62 663.752H1313.6C1313.98 661 1315.64 659.432 1318.27 659.432Z" fill="#F2F2F2"/>
<rect x="509" y="619" width="411" height="83" rx="41.5" fill="#112B4B"/>
<path d="M557.988 673V670.088H547.012V662.76H556.9V659.976H547.012V652.744H557.988V649.864H543.876V673H557.988ZM565.028 673V664.712C565.028 661.672 566.66 659.656 569.476 659.656C571.78 659.656 573.252 660.936 573.252 664.104V673H576.26V663.432C576.26 659.432 574.372 656.904 570.244 656.904C568.036 656.904 566.052 657.96 565.06 659.752L564.74 657.352H562.02V673H565.028ZM584.842 673V659.88H587.914V657.352H584.842V652.456H581.834V657.352H578.762V659.88H581.834V673H584.842ZM597.209 673.384C601.081 673.384 603.705 671.496 604.473 668.136H601.657C601.145 669.928 599.609 670.888 597.273 670.888C594.297 670.888 592.569 669.064 592.345 665.768L604.441 665.736V664.616C604.441 659.976 601.529 656.904 597.081 656.904C592.537 656.904 589.433 660.296 589.433 665.192C589.433 670.056 592.601 673.384 597.209 673.384ZM597.081 659.432C599.737 659.432 601.433 661.16 601.433 663.752H592.409C592.793 661 594.457 659.432 597.081 659.432ZM616.761 657.224C616.153 657.096 615.705 657.032 615.161 657.032C613.017 657.032 611.449 658.12 610.809 659.752L610.617 657.384H607.801V673H610.809V664.712C610.809 661.704 612.569 659.976 615.417 659.976H616.761V657.224ZM619.582 680.008H622.59V670.44C623.614 672.36 625.694 673.416 628.19 673.416C632.83 673.416 635.454 669.832 635.454 665.064C635.454 660.264 632.67 656.904 628.19 656.904C625.694 656.904 623.582 658.024 622.526 660.168L622.302 657.352H619.582V680.008ZM622.622 665.192C622.622 661.928 624.478 659.656 627.55 659.656C630.622 659.656 632.446 661.96 632.446 665.192C632.446 668.392 630.622 670.696 627.55 670.696C624.478 670.696 622.622 668.392 622.622 665.192ZM647.73 657.224C647.122 657.096 646.674 657.032 646.13 657.032C643.986 657.032 642.418 658.12 641.778 659.752L641.586 657.384H638.77V673H641.778V664.712C641.778 661.704 643.538 659.976 646.386 659.976H647.73V657.224ZM652.023 653.64C653.111 653.64 654.007 652.744 654.007 651.656C654.007 650.536 653.111 649.672 652.023 649.672C650.935 649.672 650.039 650.536 650.039 651.656C650.039 652.744 650.935 653.64 652.023 653.64ZM650.551 673H653.559V657.352H650.551V673ZM656.646 668.456C656.646 671.432 658.982 673.384 662.662 673.384C666.374 673.384 668.934 671.496 668.934 668.52C668.934 666.184 667.622 664.968 664.966 664.328L662.214 663.656C660.678 663.272 659.91 662.568 659.91 661.512C659.91 660.072 660.966 659.24 662.854 659.24C664.678 659.24 665.734 660.232 665.798 661.8H668.678C668.614 658.824 666.374 656.904 662.95 656.904C659.494 656.904 657.062 658.728 657.062 661.608C657.062 663.912 658.374 665.288 661.158 665.96L663.91 666.6C665.542 667.016 666.054 667.656 666.054 668.712C666.054 670.152 664.838 671.016 662.726 671.016C660.742 671.016 659.526 670.056 659.526 668.456H656.646ZM679.022 673.384C682.894 673.384 685.518 671.496 686.286 668.136H683.47C682.958 669.928 681.422 670.888 679.086 670.888C676.11 670.888 674.382 669.064 674.158 665.768L686.254 665.736V664.616C686.254 659.976 683.342 656.904 678.894 656.904C674.35 656.904 671.246 660.296 671.246 665.192C671.246 670.056 674.414 673.384 679.022 673.384ZM678.894 659.432C681.55 659.432 683.246 661.16 683.246 663.752H674.222C674.606 661 676.27 659.432 678.894 659.432ZM706.524 673C713.372 673 717.98 668.328 717.98 661.448C717.98 654.536 713.308 649.864 706.396 649.864H698.876V673H706.524ZM706.172 652.744C711.452 652.744 714.716 656.072 714.716 661.448C714.716 666.76 711.452 670.088 706.3 670.088H702.012V652.744H706.172ZM728.209 673.384C732.081 673.384 734.705 671.496 735.473 668.136H732.657C732.145 669.928 730.609 670.888 728.273 670.888C725.297 670.888 723.569 669.064 723.345 665.768L735.441 665.736V664.616C735.441 659.976 732.529 656.904 728.081 656.904C723.537 656.904 720.433 660.296 720.433 665.192C720.433 670.056 723.601 673.384 728.209 673.384ZM728.081 659.432C730.737 659.432 732.433 661.16 732.433 663.752H723.409C723.793 661 725.457 659.432 728.081 659.432ZM742.654 673H745.63L752.158 657.352H749.022L745.534 666.088C744.99 667.464 744.478 668.808 744.222 669.832C743.966 668.872 743.518 667.56 742.974 666.088L739.55 657.352H736.35L742.654 673ZM760.584 673.384C764.456 673.384 767.08 671.496 767.848 668.136H765.032C764.52 669.928 762.984 670.888 760.648 670.888C757.672 670.888 755.944 669.064 755.72 665.768L767.816 665.736V664.616C767.816 659.976 764.904 656.904 760.456 656.904C755.912 656.904 752.808 660.296 752.808 665.192C752.808 670.056 755.976 673.384 760.584 673.384ZM760.456 659.432C763.112 659.432 764.808 661.16 764.808 663.752H755.784C756.168 661 757.832 659.432 760.456 659.432ZM774.248 673V649.448H771.24V673H774.248ZM777.652 665.16C777.652 669.992 781.108 673.384 785.812 673.384C790.484 673.384 793.94 669.992 793.94 665.16C793.94 660.328 790.484 656.936 785.812 656.936C781.108 656.936 777.652 660.328 777.652 665.16ZM780.692 665.16C780.692 661.896 782.772 659.624 785.812 659.624C788.82 659.624 790.932 661.896 790.932 665.16C790.932 668.424 788.82 670.696 785.812 670.696C782.772 670.696 780.692 668.424 780.692 665.16ZM797.27 680.008H800.278V670.44C801.302 672.36 803.382 673.416 805.878 673.416C810.518 673.416 813.142 669.832 813.142 665.064C813.142 660.264 810.358 656.904 805.878 656.904C803.382 656.904 801.27 658.024 800.214 660.168L799.99 657.352H797.27V680.008ZM800.31 665.192C800.31 661.928 802.166 659.656 805.238 659.656C808.31 659.656 810.134 661.96 810.134 665.192C810.134 668.392 808.31 670.696 805.238 670.696C802.166 670.696 800.31 668.392 800.31 665.192ZM819.465 673V663.72C819.465 661.224 820.969 659.656 823.241 659.656C825.353 659.656 826.697 661 826.697 663.464V673H829.673V663.72C829.673 661.224 831.177 659.624 833.449 659.624C835.561 659.624 836.937 661.032 836.937 663.496V673H839.881V662.76C839.881 659.144 837.705 656.904 834.121 656.904C831.689 656.904 829.801 658.12 829.065 660.072C828.265 658.12 826.537 656.904 824.105 656.904C821.897 656.904 820.233 657.928 819.433 659.4L819.145 657.352H816.457V673H819.465ZM850.803 673.384C854.675 673.384 857.299 671.496 858.067 668.136H855.251C854.739 669.928 853.203 670.888 850.867 670.888C847.891 670.888 846.163 669.064 845.939 665.768L858.035 665.736V664.616C858.035 659.976 855.123 656.904 850.675 656.904C846.131 656.904 843.027 660.296 843.027 665.192C843.027 670.056 846.195 673.384 850.803 673.384ZM850.675 659.432C853.331 659.432 855.027 661.16 855.027 663.752H846.003C846.387 661 848.051 659.432 850.675 659.432ZM864.403 673V664.712C864.403 661.672 866.035 659.656 868.851 659.656C871.155 659.656 872.627 660.936 872.627 664.104V673H875.635V663.432C875.635 659.432 873.747 656.904 869.619 656.904C867.411 656.904 865.427 657.96 864.435 659.752L864.115 657.352H861.395V673H864.403ZM884.217 673V659.88H887.289V657.352H884.217V652.456H881.209V657.352H878.137V659.88H881.209V673H884.217Z" fill="#F2F2F2"/>
<rect x="200" y="619" width="209" height="83" rx="41.5" fill="#112B4B"/>
<path d="M249.206 673V670.088H238.23V662.76H248.118V659.976H238.23V652.744H249.206V649.864H235.094V673H249.206ZM259.51 673.384C262.007 673.384 264.119 672.296 265.143 670.152L265.399 673H268.087V649.448H265.111V659.88C264.055 657.96 262.039 656.904 259.639 656.904C254.999 656.904 252.215 660.424 252.215 665.224C252.215 669.992 254.967 673.384 259.51 673.384ZM260.119 670.664C257.047 670.664 255.255 668.36 255.255 665.128C255.255 661.928 257.047 659.624 260.119 659.624C263.191 659.624 265.079 661.928 265.079 665.128C265.079 668.392 263.191 670.664 260.119 670.664ZM283.242 657.352V665.608C283.242 668.968 281.738 670.728 278.986 670.728C276.682 670.728 275.242 669.448 275.242 666.088V657.352H272.234V667.08C272.234 670.92 274.282 673.384 277.93 673.384C280.234 673.384 282.314 672.264 283.21 670.632L283.53 673H286.218V657.352H283.242ZM289.246 665.192C289.246 670.12 292.286 673.384 296.894 673.384C300.67 673.384 303.582 671.112 304.19 667.72H301.182C300.638 669.576 299.038 670.696 296.894 670.696C294.046 670.696 292.222 668.52 292.222 665.16C292.222 661.768 294.174 659.592 297.022 659.592C299.038 659.592 300.638 660.648 301.15 662.632H304.158C303.614 659.144 300.862 656.904 296.926 656.904C292.35 656.904 289.246 660.296 289.246 665.192ZM311.94 673.384C314.468 673.384 316.612 672.264 317.412 670.472L317.732 673H320.292V663.176C320.292 658.952 317.668 656.904 313.796 656.904C309.764 656.904 307.076 659.048 307.076 662.312H309.7C309.7 660.424 311.14 659.304 313.668 659.304C315.78 659.304 317.348 660.232 317.348 662.856V663.304L312.42 663.688C308.74 663.976 306.596 665.768 306.596 668.648C306.596 671.496 308.58 673.384 311.94 673.384ZM312.804 671.048C310.852 671.048 309.636 670.216 309.636 668.552C309.636 667.016 310.724 665.992 313.38 665.736L317.38 665.416V666.248C317.38 669.192 315.652 671.048 312.804 671.048ZM328.623 673V659.88H331.695V657.352H328.623V652.456H325.615V657.352H322.543V659.88H325.615V673H328.623ZM335.867 653.64C336.955 653.64 337.851 652.744 337.851 651.656C337.851 650.536 336.955 649.672 335.867 649.672C334.779 649.672 333.883 650.536 333.883 651.656C333.883 652.744 334.779 653.64 335.867 653.64ZM334.395 673H337.403V657.352H334.395V673ZM340.746 665.16C340.746 669.992 344.202 673.384 348.906 673.384C353.578 673.384 357.034 669.992 357.034 665.16C357.034 660.328 353.578 656.936 348.906 656.936C344.202 656.936 340.746 660.328 340.746 665.16ZM343.786 665.16C343.786 661.896 345.866 659.624 348.906 659.624C351.914 659.624 354.026 661.896 354.026 665.16C354.026 668.424 351.914 670.696 348.906 670.696C345.866 670.696 343.786 668.424 343.786 665.16ZM363.372 673V664.712C363.372 661.672 365.004 659.656 367.82 659.656C370.124 659.656 371.596 660.936 371.596 664.104V673H374.604V663.432C374.604 659.432 372.716 656.904 368.588 656.904C366.38 656.904 364.396 657.96 363.404 659.752L363.084 657.352H360.364V673H363.372Z" fill="#F2F2F2"/>
<rect x="1459" y="619" width="260" height="83" rx="41.5" fill="#112B4B"/>
<path d="M1497.06 673V662.728H1508.51V673H1511.65V649.864H1508.51V659.816H1497.06V649.864H1493.92V673H1497.06ZM1523.26 673.384C1527.13 673.384 1529.75 671.496 1530.52 668.136H1527.7C1527.19 669.928 1525.66 670.888 1523.32 670.888C1520.34 670.888 1518.62 669.064 1518.39 665.768L1530.49 665.736V664.616C1530.49 659.976 1527.58 656.904 1523.13 656.904C1518.58 656.904 1515.48 660.296 1515.48 665.192C1515.48 670.056 1518.65 673.384 1523.26 673.384ZM1523.13 659.432C1525.78 659.432 1527.48 661.16 1527.48 663.752H1518.46C1518.84 661 1520.5 659.432 1523.13 659.432ZM1538.27 673.384C1540.8 673.384 1542.94 672.264 1543.74 670.472L1544.06 673H1546.62V663.176C1546.62 658.952 1544 656.904 1540.12 656.904C1536.09 656.904 1533.4 659.048 1533.4 662.312H1536.03C1536.03 660.424 1537.47 659.304 1540 659.304C1542.11 659.304 1543.68 660.232 1543.68 662.856V663.304L1538.75 663.688C1535.07 663.976 1532.92 665.768 1532.92 668.648C1532.92 671.496 1534.91 673.384 1538.27 673.384ZM1539.13 671.048C1537.18 671.048 1535.96 670.216 1535.96 668.552C1535.96 667.016 1537.05 665.992 1539.71 665.736L1543.71 665.416V666.248C1543.71 669.192 1541.98 671.048 1539.13 671.048ZM1553.86 673V649.448H1550.85V673H1553.86ZM1562.7 673V659.88H1565.77V657.352H1562.7V652.456H1559.69V657.352H1556.62V659.88H1559.69V673H1562.7ZM1571.48 672.968V664.456C1571.48 661.768 1573.05 659.656 1575.96 659.656C1578.2 659.656 1579.7 660.936 1579.7 664.104V673H1582.71V663.432C1582.71 659.432 1580.79 656.904 1576.79 656.904C1574.36 656.904 1572.47 658.056 1571.48 659.752V649.448H1568.47V672.968H1571.48ZM1594.8 656.104C1594.8 659.432 1596.75 661.608 1600.53 662.472L1604.33 663.336C1606.54 663.848 1607.53 665 1607.53 666.824C1607.53 669.128 1605.58 670.568 1602.51 670.568C1599.6 670.568 1597.74 669.16 1597.68 666.952H1594.48C1594.67 670.92 1597.81 673.384 1602.51 673.384C1607.44 673.384 1610.67 670.728 1610.67 666.568C1610.67 663.304 1608.75 661.256 1604.97 660.392L1601.17 659.496C1598.99 658.984 1597.93 657.864 1597.93 656.008C1597.93 653.736 1599.82 652.264 1602.73 652.264C1605.33 652.264 1606.96 653.608 1607.12 655.912H1610.29C1610.03 651.912 1607.18 649.448 1602.77 649.448C1598 649.448 1594.8 652.136 1594.8 656.104ZM1620.85 673.384C1624.72 673.384 1627.35 671.496 1628.11 668.136H1625.3C1624.79 669.928 1623.25 670.888 1620.91 670.888C1617.94 670.888 1616.21 669.064 1615.99 665.768L1628.08 665.736V664.616C1628.08 659.976 1625.17 656.904 1620.72 656.904C1616.18 656.904 1613.07 660.296 1613.07 665.192C1613.07 670.056 1616.24 673.384 1620.85 673.384ZM1620.72 659.432C1623.38 659.432 1625.07 661.16 1625.07 663.752H1616.05C1616.43 661 1618.1 659.432 1620.72 659.432ZM1630.42 665.192C1630.42 670.12 1633.46 673.384 1638.07 673.384C1641.84 673.384 1644.75 671.112 1645.36 667.72H1642.35C1641.81 669.576 1640.21 670.696 1638.07 670.696C1635.22 670.696 1633.39 668.52 1633.39 665.16C1633.39 661.768 1635.35 659.592 1638.19 659.592C1640.21 659.592 1641.81 660.648 1642.32 662.632H1645.33C1644.79 659.144 1642.03 656.904 1638.1 656.904C1633.52 656.904 1630.42 660.296 1630.42 665.192ZM1652.95 673V659.88H1656.02V657.352H1652.95V652.456H1649.94V657.352H1646.87V659.88H1649.94V673H1652.95ZM1657.54 665.16C1657.54 669.992 1661 673.384 1665.7 673.384C1670.37 673.384 1673.83 669.992 1673.83 665.16C1673.83 660.328 1670.37 656.936 1665.7 656.936C1661 656.936 1657.54 660.328 1657.54 665.16ZM1660.58 665.16C1660.58 661.896 1662.66 659.624 1665.7 659.624C1668.71 659.624 1670.82 661.896 1670.82 665.16C1670.82 668.424 1668.71 670.696 1665.7 670.696C1662.66 670.696 1660.58 668.424 1660.58 665.16ZM1686.12 657.224C1685.51 657.096 1685.06 657.032 1684.52 657.032C1682.38 657.032 1680.81 658.12 1680.17 659.752L1679.98 657.384H1677.16V673H1680.17V664.712C1680.17 661.704 1681.93 659.976 1684.78 659.976H1686.12V657.224Z" fill="#F2F2F2"/>
</svg>
